<?xml version="1.0" encoding="UTF-8" standalone="no"?>
<svg width="262px" height="262px" viewBox="0 0 262 262" version="1.1" xmlns="http://www.w3.org/2000/svg" xmlns:xlink="http://www.w3.org/1999/xlink">
    <!-- Generator: Sketch 48.2 (47327) - http://www.bohemiancoding.com/sketch -->
    <title>private</title>
    <desc>Created with Sketch.</desc>
    <defs></defs>
    <g id="Page-1" stroke="none" stroke-width="1" fill="none" fill-rule="evenodd">
        <g id="private">
            <circle id="Oval" fill="#715EFA" cx="131" cy="131" r="131"></circle>
            <path d="M92.0030997,100 C92.2708572,78.4151723 109.851663,61 131.5,61 C153.148337,61 170.729143,78.4151723 170.9969,100 L178.180574,100 C182.638168,100 184.254599,100.464128 185.884229,101.335664 C187.513858,102.207199 188.792801,103.486142 189.664336,105.115771 C190.535872,106.745401 191,108.361832 191,112.819426 L191,189.180574 C191,193.638168 190.535872,195.254599 189.664336,196.884229 C188.792801,198.513858 187.513858,199.792801 185.884229,200.664336 C184.254599,201.535872 182.638168,202 178.180574,202 L84.819426,202 C80.3618323,202 78.7454011,201.535872 77.1157715,200.664336 C75.4861419,199.792801 74.207199,198.513858 73.3356635,196.884229 C72.4641281,195.254599 72,193.638168 72,189.180574 L72,112.819426 C72,108.361832 72.4641281,106.745401 73.3356635,105.115771 C74.207199,103.486142 75.4861419,102.207199 77.1157715,101.335664 C78.7454011,100.464128 80.3618323,100 84.819426,100 L92.0030997,100 Z M103.037475,100 L161.962525,100 C161.18147,84.4046017 148.28936,72 132.5,72 C116.71064,72 103.81853,84.4046017 103.037475,100 Z" id="Combined-Shape" fill="#FFFFFF"></path>
        </g>
    </g>
</svg>