<?xml version="1.0" encoding="UTF-8" standalone="no"?>
<svg width="262px" height="262px" viewBox="0 0 262 262" version="1.1" xmlns="http://www.w3.org/2000/svg" xmlns:xlink="http://www.w3.org/1999/xlink">
    <!-- Generator: Sketch 48.2 (47327) - http://www.bohemiancoding.com/sketch -->
    <title>Group 2</title>
    <desc>Created with Sketch.</desc>
    <defs></defs>
    <g id="Page-1" stroke="none" stroke-width="1" fill="none" fill-rule="evenodd">
        <g id="Group-2">
            <circle id="Oval" fill="#55D47C" cx="131" cy="131" r="131"></circle>
            <path d="M103.66142,194.106737 C98.1719541,191.662136 93.0633832,188.516747 88.4493492,184.78421 L188.996684,94.2509828 C192.218296,99.2135912 194.814863,104.61947 196.674841,110.357076 L103.66142,194.106737 Z M127.015173,199.85553 L199.948295,134.186252 C198.537454,170.772661 168.431932,200 131.5,200 C129.993199,200 128.497762,199.951348 127.015173,199.85553 Z M74.9475123,170.164711 C72.0961397,166.002198 69.6923779,161.508925 67.8055961,156.754261 L163.270362,70.7973995 C167.787516,73.1664393 172.007672,76.0249072 175.860383,79.302354 L74.9475123,170.164711 Z M63.0544153,134.255636 C63.0182522,133.341581 63,132.422922 63,131.5 C63,93.6684946 93.6684946,63 131.5,63 C134.863004,63 138.169404,63.2423483 141.402689,63.7105332 L63.0544153,134.255636 Z" id="Combined-Shape" fill="#FFFFFF"></path>
        </g>
    </g>
</svg>