<?xml version="1.0" encoding="UTF-8" standalone="no"?>
<svg width="348px" height="84px" viewBox="0 0 348 84" version="1.1" xmlns="http://www.w3.org/2000/svg" xmlns:xlink="http://www.w3.org/1999/xlink">
    <!-- Generator: Sketch 48.2 (47327) - http://www.bohemiancoding.com/sketch -->
    <title>Untitled</title>
    <desc>Created with Sketch.</desc>
    <defs></defs>
    <g id="Page-1" stroke="none" stroke-width="1" fill="none" fill-rule="evenodd">
        <path d="M123.862893,53.5063593 C66.5295595,56.8396927 47.8628928,61.173026 67.8628928,66.5063593 C97.8628928,74.5063593 147.862893,86.5063593 249.862893,82.5063593 C351.862893,78.5063593 421.862893,34.5063593 209.862893,17.5063593 C-2.13710718,0.506359341 -7.13710718,21.5063593 2.86289282,27.5063593 C12.8628928,33.5063593 23.8628928,49.7945193 123.862893,47.1504393 C190.529559,45.3877193 190.529559,47.5063593 123.862893,53.5063593 Z" id="Path-9" fill="#F0F9F8"></path>
        <g id="Group" transform="translate(92.000000, 0.000000)">
            <path d="M96,65 L100,65 C103.333333,51.0952381 103,42.8095238 99,40.1428571 C95,37.4761905 93,39.4761905 93,46.1428571 L96,65 Z" id="Path-6" fill="#66E385"></path>
            <path d="M85,64.2631579 L83,40.2631579 C84.3333333,34.2631579 87.6666667,34.5964912 93,41.2631579 C98.3333333,47.9298246 99.6666667,55.2631579 97,63.2631579 L96,65 L88,64.2631579 L85,64.2631579 Z" id="Path-5" fill="#39BFA5"></path>
            <path d="M44.3333333,18.6666667 C41.0882533,11.7129238 40.3333333,5.66666667 48.3333333,1.66666667 C54.3333333,-1.66666667 61,8.8817842e-16 68.3333333,6.66666667 L65.3333333,15.6666667 L73.3333333,12.6666667 C81.3333333,23.3333333 85,29.6666667 84.3333333,31.6666667 C80.3333333,36.3333333 78.3333333,38.6666667 78.3333333,38.6666667 C82.3333333,38.2222222 84.5555556,38.2222222 85,38.6666667 C85.6666667,39.3333333 89.2982411,46.1588871 91,50 C92.4580867,53.2911099 93.79142,58.2911099 95,65 L76.3333333,61.6666667 C57.1633867,37.6358286 46.49672,23.3024953 44.3333333,18.6666667 Z" id="Path-4" fill="#2FA18A"></path>
            <path d="M26,37 L30,20 C38.6287741,12.3086269 47.0257952,12.530871 55.1910633,20.6667323 C53.6479102,25.1701626 52.8763337,27.4218778 52.8763337,27.4218778 L60.2395683,25.0735405 C68.962743,37.0450162 74.8828869,47.6871694 78,57 L56.6067872,61.8361511 L26,37 Z" id="Path-2" fill="#3ABFA4"></path>
            <path d="M76,57 C74.6331269,54.4636652 72.9664602,52.1303319 71,50 C69.0335398,47.8696681 66.7002064,45.8696681 64,44 L59.9412871,50.6242428 L59.9412871,40.6705906 C55.5225762,33.577968 48.2010011,27.4837737 37.976562,22.3880079 L29.7836376,29.718685 L33.2084711,20.1930057 C21.8532732,15.7525898 12.2561776,18.0554167 4.41718417,27.1014863 C-7.34130596,40.6705906 7.09319639,48.1430502 16.1756743,51.940719 L25,48 L20,55 C23.2979223,58.2146486 31.964589,60.8813153 46,63 C46.2352538,62.86872 57.0216191,53.3154836 63.249544,61.7583651 C67.4014938,67.3869529 71.6516459,65.8008311 76,57 Z" id="Path" fill="#66E385"></path>
            <path d="" id="Path-7" stroke="#979797"></path>
            <path d="M17,33 C51.6666667,51.1960784 69,60.5784314 69,61.1470588 C69,61.7156863 68.431694,62 67.295082,62 L17,33 Z" id="Path-8" fill="#5FD37B"></path>
            <path d="M43.1840056,64.7189266 L96,65 C89.5136817,53.1039343 79.0891594,51.8809123 64.7264333,61.3309338 C63.7416624,61.9996886 63.0106021,61.7984191 62.5332524,60.7271253 C62.1907884,59.9585493 57.2271472,56.7012729 50.5085396,58.4052196 C48.7443744,58.8526402 46.3028631,60.9572092 43.1840056,64.7189266 Z" id="Path-3" fill="#44BF7D"></path>
        </g>
    </g>
</svg>