<svg id="Layer_1" data-name="Layer 1" xmlns="http://www.w3.org/2000/svg" viewBox="0 0 937.18 377.39"><defs><style>.cls-1{fill:url(#linear-gradient)}.cls-2{fill:url(#linear-gradient-2)}.cls-3{fill:url(#linear-gradient-3)}.cls-4{fill:url(#linear-gradient-4)}</style><linearGradient id="linear-gradient" x1="198.73" y1="236.87" x2="491.07" y2="236.87" gradientUnits="userSpaceOnUse"><stop offset="0" stop-color="#f05a46"/><stop offset="1" stop-color="#ee4983"/></linearGradient><linearGradient id="linear-gradient-2" x1="799.76" y1="280.61" x2="1098.42" y2="280.61" gradientUnits="userSpaceOnUse"><stop offset="0" stop-color="#f49621"/><stop offset="1" stop-color="#ffd00d"/></linearGradient><linearGradient id="linear-gradient-3" x1="395.44" y1="491.92" x2="684.57" y2="491.92" gradientUnits="userSpaceOnUse"><stop offset="0" stop-color="#62c3b2"/><stop offset="1" stop-color="#00bac9"/></linearGradient><linearGradient id="linear-gradient-4" x1="859.88" y1="491.22" x2="1020.95" y2="491.22" gradientUnits="userSpaceOnUse"><stop offset="0" stop-color="#5a70b4"/><stop offset="1" stop-color="#3e94d0"/></linearGradient></defs><title>404</title><path class="cls-1" d="M485.34 255.3c-5.92 1.25-11.86 2.37-17.85 3.26l-2.14.31c-2.82.43 3.86-.45 1-.14-1.45.15-2.9.34-4.35.5q-4.76.49-9.53.78a167 167 0 0 1-19.92 0q-2.2-.14-4.39-.34c-.76-.07-5.38-.62-2.42-.23s-2.11-.37-3.08-.55q-2.48-.46-4.94-1c-3-.71-6-1.55-8.94-2.54-.81-.27-3.23-1.66-4-1.47.08 0 3.53 1.61 1.51.64-.85-.41-1.72-.78-2.56-1.2a74.63 74.63 0 0 1-8-4.53c-.51-.34-3-2.56-3.51-2.44.15 0 2.87 2.42 1.22.91-.77-.71-1.6-1.36-2.39-2.05-10.42-9.21-19.05-19.87-27.94-30.52-22-26.34-52.09-44.64-87.32-40.79-30.67 3.35-59.19 16-86.22 30.33-9.26 4.91-12.86 18.54-7.18 27.36a20.44 20.44 0 0 0 27.36 7.18c7.08-3.75 14.23-7.36 21.52-10.69 1.52-.7 3.05-1.37 4.58-2.05.35-.16 2.87-1.27.58-.27s.66-.27 1.26-.51q4.48-1.83 9-3.49c10-3.64 20.1-5.64 30.43-8.06.38-.09-5 .55-2.83.38.49 0 1-.12 1.46-.17 1.1-.11 2.2-.22 3.31-.3 1.93-.14 3.87-.23 5.8-.25s3.59 0 5.38.14c.78 0 1.56.13 2.35.19 3.53.27-.2.13-1.95-.31 2.92.72 5.89 1.08 8.79 2 1.32.4 2.62.88 3.92 1.34 4.14 1.46-4.94-2.4-.6-.24a96.56 96.56 0 0 1 12.25 7.2l1.9 1.35a13.14 13.14 0 0 1 2 1.43c-.09-.09-2.67-2.23-1-.74 2.35 2.09 4.76 4.07 7 6.27a166.44 166.44 0 0 1 11.67 13.07c8.72 10.6 17.5 21.16 28 30a101.73 101.73 0 0 0 39 20.49c30.07 8.21 62.32 4.64 92.36-1.7 10.25-2.17 17.16-14.76 14-24.6-3.5-10.82-13.62-16.29-24.6-14z" transform="translate(-179.67 -173.4)"/><path class="cls-2" d="M821 347.82c1-3.24 2.27-6.41 3.54-9.56 1.75-4.36-2.25 5.05-.2.5.63-1.41 1.26-2.82 1.91-4.22q2.36-5 5-9.93a204.8 204.8 0 0 1 14.48-23.14c.72-1 1.46-2 2.18-3 2-2.78-2.69 3.37-.51.64 1.73-2.16 3.47-4.31 5.27-6.41q5.5-6.4 11.56-12.29c4.3-4.17 8.91-7.91 13.47-11.78 1.64-1.39-1.49 1.24-1.53 1.18s1.8-1.35 2.06-1.54q1.83-1.35 3.7-2.64 4.09-2.83 8.34-5.42a164.79 164.79 0 0 1 17.11-9.07A16.32 16.32 0 0 1 910 250c-.05 0-3.58 1.45-1.45.61 1.59-.63 3.17-1.27 4.77-1.87q5.3-2 10.72-3.61a170.13 170.13 0 0 1 21.6-5c.75-.12 1.51-.22 2.25-.35 2.88-.5-3.7.4-.8.1 1.76-.18 3.52-.41 5.28-.57q5.65-.51 11.33-.66a175.31 175.31 0 0 1 21.88.81c1 .1 3.68.91 4.5.51-1.4.68-3.49-.52-.83-.09l2.24.36q5.6.92 11.13 2.2a180.59 180.59 0 0 1 23.23 7 37.81 37.81 0 0 1 5.67 2.25c-4.17-2.44 1 .5 2.21 1.07q5.91 2.76 11.62 5.93a235.82 235.82 0 0 1 20.8 13.46c1.84 1.29-.79-.64-.94-.76q1.54 1.21 3.06 2.44 2.44 2 4.81 4.05c3.39 3 6.65 6 9.82 9.21 7.41 7.4 21 8 28.28 0s7.91-20.38 0-28.28c-48-48-117.76-70-184.42-55.72C873 214.63 828 250.7 800.48 297.61a201.89 201.89 0 0 0-18.1 39.58c-3.22 10 3.76 22.28 14 24.6a20.45 20.45 0 0 0 24.6-14z" transform="translate(-179.67 -173.4)"/><path class="cls-3" d="M668.86 438.86c-8.42 10.75-16.06 22-24 33.07-1.83 2.53-4.15 5-5.7 7.71.17-.3 3-3.8.92-1.21l-1.49 1.87q-1.5 1.86-3 3.69a130.46 130.46 0 0 1-13.15 13.58c-1.09 1-2.7 1.88-3.58 3 2.13-2.74 2.8-2.07 1.28-1-.63.45-1.25.91-1.89 1.35a76.23 76.23 0 0 1-7.93 4.84c-1.27.67-3.1 1.16-4.21 2 2.62-2.1 3.36-1.31 1.51-.67-.75.26-1.48.55-2.23.81a75.7 75.7 0 0 1-10 2.57c-4.51.88 3.3-.14-.35 0-1.76.08-3.5.25-5.26.28s-3.66 0-5.49-.11c-.94-.05-1.89-.12-2.83-.2-.69-.06-4.71-.83-1.73-.17 2.66.59-2.33-.52-3.31-.75-1.88-.45-3.75-1-5.59-1.62a11.38 11.38 0 0 1-2.65-1c.14.16 4.33 2.09 1 .37-1.81-.93-3.63-1.82-5.39-2.86q-2-1.19-4-2.49c-.73-.5-1.44-1-2.18-1.52-3-2.05.65.67.88.74-2.76-.74-6.42-5.41-8.48-7.32-5.14-4.76-10-9.78-15.21-14.52a192.49 192.49 0 0 0-23.5-18.19C496 451 478.8 446.82 460.69 450c-12.43 2.15-24.35 8.28-34.5 15.61-16.53 11.94-30.51 26.51-43.33 42.3-6.58 8.11-8.52 20.46 0 28.28 7.3 6.71 21.24 8.67 28.28 0 6-7.4 12.25-14.62 19-21.41 2.82-2.86 5.71-5.64 8.7-8.32q2.05-1.84 4.16-3.61l1.53-1.26c2.56-2.15 1 0-.54.36 2.44-.65 5.45-4 7.67-5.37s4.74-2.88 7.21-4.14c1.1-.56 2.41-1 3.44-1.65-4.8 3.08-2.69 1.08-.62.33a55 55 0 0 1 6.31-1.9c1-.23 2-.37 3-.61 2.4-.58-5.92.47-1.69.25 1.84-.1 3.65-.2 5.49-.12.87 0 1.75.19 2.61.2 2.25 0-6-1.19-2.17-.25 1.69.41 3.38.74 5 1.26.66.21 1.32.45 2 .67.37.12.73.31 1.1.42 2.52.75-3.74-1.39-3.16-1.35 1.3.09 3.22 1.51 4.36 2.12a83.62 83.62 0 0 1 7.39 4.55c2.17 1.48 4.3 3 6.44 4.55.44.32 2.62 1.46 2.67 1.93-.06-.51-3.19-2.61-1-.71.66.56 1.34 1.11 2 1.67 2.82 2.4 5.53 4.93 8.21 7.5 11 10.56 22 21.81 35.56 29.11 29.2 15.67 67 13.64 94-5.92 13.89-10.09 24.68-22.42 35-36.06 4.3-5.7 8.39-11.56 12.49-17.41 2-2.84 4-5.69 6-8.51q1.49-2.06 3-4.11l1.34-1.78c2.17-2.93-2.84 3.63-.45.57 3.41-4.36 5.86-8.36 5.86-14.14 0-4.91-2.18-10.76-5.86-14.14-7.19-6.6-21.39-8.8-28.28 0z" transform="translate(-179.67 -173.4)"/><path class="cls-4" d="M1009.65 456.11a176.67 176.67 0 0 1-32.15 18.56c-1.15.53-2.31 1-3.46 1.55-3.09 1.38 4.58-1.83.11-.05-2.56 1-5.13 2-7.73 3q-8.4 3-17 5.28c-6.27 1.63-12.59 2.77-19 3.89-2.29.4 1.74-.21 1.75-.21-.92.19-2 .25-2.89.35q-2.2.25-4.4.44-5.64.5-11.3.61A135.42 135.42 0 0 1 889 488.2c.21 0 3.55.57 1.21.14-1.37-.26-2.76-.44-4.14-.69q-2.93-.53-5.85-1.16c-4.87-1.06-9.68-2.35-14.44-3.82-10-3.07-22.25 3.65-24.6 14-2.47 10.82 3.26 21.32 14 24.6 54 16.55 112.8 6.72 161-21.65a150.54 150.54 0 0 0 13.66-8.95c8.36-6.23 13.48-17.59 7.18-27.36-5.34-8.28-18.39-13.86-27.36-7.18z" transform="translate(-179.67 -173.4)"/></svg>