<?xml version="1.0" standalone="no"?><!-- Generator: Gravit.io --><svg xmlns="http://www.w3.org/2000/svg" xmlns:xlink="http://www.w3.org/1999/xlink" style="isolation:isolate" viewBox="0 0 500 700" width="500" height="700"><defs><clipPath id="_clipPath_Kumwz5kxvlJCZj7fmcd0tNQZ7t3ieBfL"><rect width="500" height="700"/></clipPath></defs><g clip-path="url(#_clipPath_Kumwz5kxvlJCZj7fmcd0tNQZ7t3ieBfL)"><path d="" fill="rgb(235,235,235)"/><g id="Group"><path d=" M 160 268 L 76.93 268 C 74.761 268 73 266.239 73 264.07 L 73 140.93 C 73 138.761 74.761 137 76.93 137 L 161 137 C 161 141.691 164.809 145.5 169.5 145.5 C 174.191 145.5 178 141.691 178 137 L 423.07 137 C 425.239 137 427 138.761 427 140.93 L 427 264.07 C 427 266.239 425.239 268 423.07 268 L 177 268 C 177 263.309 173.191 259.5 168.5 259.5 C 163.809 259.5 160 263.309 160 268 Z " fill-rule="evenodd" fill="rgb(235,235,235)"/><line x1="169" y1="145" x2="169" y2="258" vector-effect="non-scaling-stroke" stroke-width="1" stroke-dasharray="2" stroke="rgb(174,173,173)" stroke-linejoin="miter" stroke-linecap="round" stroke-miterlimit="3"/><g transform="matrix(0,-1,1,0,81,258)"><text transform="matrix(1,0,0,1,0,12.378)" style="font-family:&quot;San Francisco Text&quot;;font-weight:400;font-size:13px;font-style:normal;fill:#1f2d3d;stroke:none;">Code :</text></g><g transform="matrix(1,0,0,1,189,145)"><text transform="matrix(1,0,0,1,0,17.139)" style="font-family:&quot;San Francisco Display&quot;;font-weight:700;font-size:18px;font-style:normal;fill:#1f2d3d;stroke:none;">Name</text></g><g transform="matrix(1,0,0,1,322,145)"><text transform="matrix(1,0,0,1,0,17.139)" style="font-family:&quot;San Francisco Display&quot;;font-weight:700;font-size:18px;font-style:normal;fill:#1f2d3d;stroke:none;">As</text></g></g></g></svg>